HIERARCHY
ROOT Hips
{
	OFFSET 0.000000 0.000000 0.000000 
	CHANNELS 6 Xposition Yposition Zposition Zrotation Xrotation Yrotation
	JOINT Spine
	{
		OFFSET -0.000000 8.061080 0.000000 
		CHANNELS 3 Zrotation Xrotation Yrotation
		JOINT Spine1
		{
			OFFSET -0.000000 20.532677 0.000000 
			CHANNELS 3 Zrotation Xrotation Yrotation
			JOINT Neck
			{
				OFFSET -0.000000 22.498795 0.000000 
				CHANNELS 3 Zrotation Xrotation Yrotation
				JOINT Head
				{
					OFFSET -0.000000 15.237408 1.966117 
					CHANNELS 3 Zrotation Xrotation Yrotation
					End Site
					{
						OFFSET -0.000000 19.661171 0.000000 
					}
				}
			}
			JOINT LeftShoulder
			{
				OFFSET 3.894675 16.042269 -0.398189 
				CHANNELS 3 Zrotation Xrotation Yrotation
				JOINT LeftArm
				{
					OFFSET 19.709621 0.000000 0.000000 
					CHANNELS 3 Zrotation Xrotation Yrotation
					JOINT LeftForeArm
					{
						OFFSET 25.566900 0.000000 0.000000 
						CHANNELS 3 Zrotation Xrotation Yrotation
						JOINT LeftHand
						{
							OFFSET 25.401896 0.000000 0.000000 
							CHANNELS 3 Zrotation Xrotation Yrotation
							End Site
							{
								OFFSET 14.745877 0.000000 0.000000 
							}
						}
					}
				}
			}
			JOINT RightShoulder
			{
				OFFSET -3.930777 16.042269 -0.398189 
				CHANNELS 3 Zrotation Xrotation Yrotation
				JOINT RightArm
				{
					OFFSET -19.709621 0.000000 0.000000 
					CHANNELS 3 Zrotation Xrotation Yrotation
					JOINT RightForeArm
					{
						OFFSET -25.566900 0.000000 0.000000 
						CHANNELS 3 Zrotation Xrotation Yrotation
						JOINT RightHand
						{
							OFFSET -25.401896 0.000000 0.000000 
							CHANNELS 3 Zrotation Xrotation Yrotation
							End Site
							{
								OFFSET -14.745877 0.000000 0.000000 
							}
						}
					}
				}
			}
		}
	}
	JOINT LeftUpLeg
	{
		OFFSET 9.830585 0.000000 0.000000 
		CHANNELS 3 Zrotation Xrotation Yrotation
		JOINT LeftLeg
		{
			OFFSET -0.000000 -46.474842 0.000000 
			CHANNELS 3 Zrotation Xrotation Yrotation
			JOINT LeftFoot
			{
				OFFSET -0.000000 -30.290520 0.000000 
				CHANNELS 3 Zrotation Xrotation Yrotation
				JOINT LeftToeBase
				{
					OFFSET -0.000000 -6.389880 14.745877 
					CHANNELS 3 Zrotation Xrotation Yrotation
					End Site
					{
						OFFSET -0.000000 0.000000 3.932234 
					}
				}
			}
		}
	}
	JOINT RightUpLeg
	{
		OFFSET -9.830585 0.000000 0.000000 
		CHANNELS 3 Zrotation Xrotation Yrotation
		JOINT RightLeg
		{
			OFFSET -0.000000 -46.474842 0.000000 
			CHANNELS 3 Zrotation Xrotation Yrotation
			JOINT RightFoot
			{
				OFFSET -0.000000 -30.290520 0.000000 
				CHANNELS 3 Zrotation Xrotation Yrotation
				JOINT RightToeBase
				{
					OFFSET -0.000000 -6.389880 14.745877 
					CHANNELS 3 Zrotation Xrotation Yrotation
					End Site
					{
						OFFSET -0.000000 0.000000 3.932234 
					}
				}
			}
		}
	}
}
MOTION
Frames: 11
Frame Time: 0.010000
0.000000 84.858276 0.000000 -2.051345 3.634981 9.550126 1.260523 -7.561605 -1.095768 2.205022 -2.064703 -0.355801 2.945905 8.977162 0.945652 0.890624 9.431288 1.415749 2.207689 9.225273 -0.939917 -70.387329 27.482220 -24.676985 -13.693003 2.218953 -3.192027 3.893171 2.105870 7.937536 -7.903718 9.612551 -10.522019 55.688217 53.577862 38.918728 6.125482 -6.248091 6.661277 -11.771530 -5.824750 -7.579607 2.136476 3.942467 4.351509 1.767481 -7.467156 4.223553 2.159122 3.804677 -0.422373 0.000000 0.000000 0.000000 -4.740311 -2.642951 6.312677 9.951343 5.398816 -17.208370 -8.901890 -0.404052 -9.892907 0.000000 0.000000 0.000000 
-0.062674 84.853752 -0.092943 -2.169132 3.903792 9.763976 1.098652 -7.700622 -1.302076 2.492446 -2.213356 -0.413038 2.804236 8.971416 1.024145 0.968943 9.423714 1.450289 2.110423 9.349584 -0.936633 -70.258110 27.655916 -24.876499 -13.599964 2.081009 -3.149589 3.827404 1.969365 7.887378 -8.004535 9.447959 -10.358480 55.961578 53.687714 38.540188 6.051469 -6.240459 6.705442 -11.800131 -5.812654 -7.585333 2.277668 3.489388 4.248824 1.722688 -7.298337 4.128287 2.153085 3.705786 -0.451161 0.000000 0.000000 0.000000 -4.606508 -2.944357 6.126855 9.892173 5.420890 -16.799633 -8.989877 -0.379280 -10.325971 0.000000 0.000000 0.000000 
0.002705 84.856590 0.000211 -2.033843 3.628251 9.570635 1.225668 -7.571887 -1.125776 2.222176 -2.035085 -0.365268 2.954980 8.995429 0.930273 0.881295 9.392208 1.404532 2.211392 9.196897 -0.915362 -70.370270 27.544664 -24.686188 -13.693801 2.201035 -3.202405 3.869058 2.084373 7.917792 -7.915274 9.583275 -10.490140 55.710075 53.636181 38.888523 6.080657 -6.276791 6.672144 -11.834645 -5.844700 -7.604068 2.135444 3.998389 4.323154 1.716454 -7.594275 4.208035 2.175563 3.903854 -0.374906 0.000000 0.000000 0.000000 -4.776935 -2.655713 6.314692 9.977864 5.405422 -18.073606 -8.917640 -0.469012 -9.027196 0.000000 0.000000 0.000000 
-0.059137 84.848900 -0.096739 -2.147043 3.898500 9.768354 1.113680 -7.630246 -1.299926 2.412851 -2.311844 -0.411923 2.897695 9.065163 0.951636 0.910044 9.365527 1.410361 2.169726 9.395953 -0.890770 -70.216713 27.714663 -24.931953 -13.629949 2.081167 -3.169394 3.838401 1.966905 7.881593 -7.949523 9.577005 -10.442116 55.768543 53.657928 38.796795 6.078450 -6.269370 6.694421 -11.847792 -5.835595 -7.621850 2.270089 3.549127 4.236612 1.668522 -7.435193 4.122356 2.196987 3.800718 -0.434846 0.000000 0.000000 0.000000 -4.672727 -2.992850 6.191327 9.953411 5.440762 -18.133999 -8.963092 -0.459979 -9.032553 0.000000 0.000000 0.000000 
0.007506 84.857094 -0.012442 -2.039877 3.627089 9.562881 1.235257 -7.570293 -1.122787 2.207736 -2.029676 -0.364927 2.957892 8.990454 0.932756 0.917398 9.381556 1.400157 2.218031 9.215572 -0.913634 -70.339073 27.568119 -24.727762 -13.690578 2.180164 -3.216069 3.888248 2.063145 7.913215 -7.907715 9.581457 -10.496560 55.740215 53.613384 38.878155 6.093614 -6.251993 6.681861 -11.852518 -5.818966 -7.613543 2.139900 3.991871 4.322651 1.711105 -7.593675 4.209279 2.213978 3.910388 -0.404461 0.000000 0.000000 0.000000 -4.774278 -2.662207 6.318454 9.976334 5.394494 -18.065180 -8.983139 -0.439306 -8.985900 0.000000 0.000000 0.000000 
-0.034831 84.846230 -0.112809 -2.135539 3.884237 9.718885 1.115486 -7.603295 -1.271647 2.432943 -2.348421 -0.401123 2.882171 9.109225 0.970605 0.906060 9.353396 1.428751 2.111379 9.415627 -0.940396 -70.217499 27.699581 -24.889765 -13.599892 2.059573 -3.190526 3.849151 1.944393 7.881649 -7.954208 9.634153 -10.437065 55.764500 53.569035 38.814922 6.122740 -6.224016 6.694865 -11.840544 -5.794886 -7.606550 2.218297 3.518268 4.235836 1.738347 -7.314463 4.193219 2.153128 3.708790 -0.433357 0.000000 0.000000 0.000000 -4.686807 -2.962402 6.171804 9.939594 5.433077 -17.271767 -8.937381 -0.419252 -9.862100 0.000000 0.000000 0.000000 
0.016467 84.865417 -0.032657 -2.061576 3.630654 9.534691 1.266835 -7.618679 -1.107173 2.190135 -1.962966 -0.362130 2.945643 8.920084 1.000547 0.958061 9.418415 1.456923 2.219253 9.182424 -0.968060 -70.359840 27.498911 -24.680613 -13.705876 2.182155 -3.235601 3.916998 2.063980 7.903682 -7.906553 9.611376 -10.530828 55.656399 53.584156 39.023453 6.141297 -6.200138 6.668056 -11.799623 -5.776374 -7.577488 2.137454 3.918746 4.328002 1.758536 -7.450442 4.233020 2.168200 3.823017 -0.379533 0.000000 0.000000 0.000000 -4.718959 -2.623839 6.269986 9.911478 5.361417 -16.789148 -8.950360 -0.353715 -10.247130 0.000000 0.000000 0.000000 
-0.031948 84.844414 -0.112822 -2.128076 3.873622 9.714762 1.142006 -7.612182 -1.277782 2.360744 -2.302917 -0.406237 2.914837 9.065517 0.953042 0.910235 9.371595 1.415443 2.176229 9.388421 -0.894607 -70.204857 27.736397 -24.919258 -13.635255 2.057968 -3.201478 3.841784 1.939527 7.868033 -7.949758 9.579267 -10.423284 55.725086 53.690174 38.859894 6.099669 -6.315476 6.699347 -11.801925 -5.887272 -7.612542 2.230633 3.585613 4.221368 1.680838 -7.452331 4.168831 2.200124 3.807581 -0.414762 0.000000 0.000000 0.000000 -4.707804 -2.972842 6.198148 9.954740 5.425388 -18.115232 -8.964529 -0.464563 -9.001986 0.000000 0.000000 0.000000 
0.022829 84.860352 -0.038672 -2.041183 3.632877 9.517553 1.259313 -7.564863 -1.103885 2.173100 -2.044333 -0.359389 2.979476 8.990705 0.928278 0.892002 9.396523 1.405297 2.218463 9.195000 -0.922897 -70.321335 27.578444 -24.700640 -13.714632 2.158724 -3.242707 3.878524 2.037047 7.911688 -7.905178 9.579218 -10.477300 55.664082 53.688629 38.961643 6.103283 -6.325758 6.691065 -11.794009 -5.899006 -7.601445 2.125768 3.972363 4.323884 1.706055 -7.582247 4.250434 2.207131 3.905745 -0.367354 0.000000 0.000000 0.000000 -4.783563 -2.681888 6.344105 9.968940 5.370447 -18.071053 -8.890386 -0.423367 -9.033478 0.000000 0.000000 0.000000 
-0.024200 84.846313 -0.127005 -2.128025 3.877233 9.695420 1.148695 -7.609038 -1.273104 2.354228 -2.310354 -0.404804 2.907477 9.049911 0.961983 0.907812 9.398866 1.422974 2.168739 9.392302 -0.892172 -70.176109 27.774998 -24.943111 -13.627108 2.043433 -3.195161 3.851200 1.926093 7.851741 -7.949111 9.580073 -10.416251 55.700169 53.711998 38.887676 6.101307 -6.329756 6.706511 -11.807237 -5.903036 -7.599522 2.224611 3.569582 4.221152 1.679154 -7.433480 4.164959 2.192014 3.796509 -0.380701 0.000000 0.000000 0.000000 -4.715103 -2.985617 6.205464 9.958116 5.416101 -18.122568 -8.925374 -0.452196 -9.032213 0.000000 0.000000 0.000000 
0.036771 84.866280 -0.057508 -2.057427 3.626950 9.477529 1.292119 -7.528351 -1.084106 2.152308 -2.113643 -0.352510 3.004469 9.020022 0.945030 0.872216 9.415117 1.432650 2.219240 9.230325 -0.938693 -70.357391 27.536156 -24.678085 -13.691247 2.183409 -3.233186 3.882214 2.063747 7.909354 -7.869968 9.639477 -10.478887 55.599289 53.645393 39.019863 6.139537 -6.306664 6.709829 -11.788910 -5.880537 -7.628960 2.071826 3.891053 4.410494 1.868009 -7.390451 4.275702 2.097195 3.784444 -0.439632 0.000000 0.000000 0.000000 -4.751031 -2.667439 6.325633 9.921458 5.355591 -17.256346 -8.924747 -0.312831 -9.758197 0.000000 0.000000 0.000000 
